<svg width="71" height="30" viewBox="0 0 71 30" fill="none" xmlns="http://www.w3.org/2000/svg">
<path d="M66.9576 11.1369C66.9576 11.1369 66.4913 10.6685 66.4913 9.90251C66.4913 9.06268 66.853 8.68165 67.3387 8.65366C67.7017 8.63187 68.1422 8.82456 68.1422 9.39187C68.1422 10.3205 66.9576 11.1369 66.9576 11.1369ZM61.8359 11.5936C61.5005 12.2195 61.0829 12.5642 60.6607 12.5642C60.2142 12.5642 60.0811 12.1834 60.0733 11.929C60.039 10.8759 61.2359 9.68091 61.9388 9.68091C62.3008 9.68091 62.3582 9.80571 62.3582 9.80571C62.3136 10.3659 62.111 11.0803 61.8359 11.5936ZM48.4255 9.04754C48.6848 8.73349 49.0336 8.53139 49.315 8.53139C49.4322 8.53139 49.5344 8.56832 49.6083 8.63645C49.7557 8.77547 49.7878 9.01198 49.7103 9.26363C49.5436 9.80364 48.8712 10.4044 48.0142 10.6875C47.8593 9.86328 48.2183 9.2969 48.4255 9.04754ZM70.5071 9.81236C70.4748 9.81075 70.4058 9.81029 70.4058 9.82773C70.3726 10.4721 69.5551 12.043 68.3082 12.043C67.8422 12.043 67.5939 11.8081 67.597 11.8107L67.5939 11.8081C68.4048 11.0582 69.0379 10.1266 68.9916 8.9177V8.91426C68.9916 8.23845 68.5477 7.37659 67.539 7.37659C66.3081 7.37659 65.5019 8.52198 65.5019 10.0161C65.5019 11.0851 65.9796 11.7205 65.9796 11.7205C65.9796 11.7205 65.624 11.9286 65.1979 11.9878C65.1177 11.9965 65.0392 12.002 64.9615 12.0024C63.107 11.9781 63.4796 8.83809 63.4796 8.83809C63.9671 7.15109 64.1269 6.03987 64.1269 5.30946C64.1269 4.6598 63.9794 3.90233 63.3073 3.90233C62.6882 3.90233 62.1906 5.04038 62.1906 7.02056C62.1906 7.51308 62.2612 8.12627 62.351 8.54951C62.351 8.54951 62.2354 8.5385 62.1366 8.53896C60.8559 8.54446 59.5017 9.85893 59.0576 11.1683C58.6364 11.6471 58.2127 11.904 57.8314 11.904C56.3176 11.904 56.5213 9.5084 56.6661 8.89109C56.6266 8.71284 56.4472 8.6493 56.289 8.6493C56.0468 8.6493 55.7427 8.78832 55.6081 9.09755C55.4956 9.71647 55.2581 10.3813 54.9726 10.8768C54.6128 11.5028 54.2003 11.8336 53.7796 11.8336C53.6431 11.8336 53.5255 11.774 53.4298 11.6565C52.9759 11.0986 53.1529 9.40288 53.223 8.99891C53.2183 8.7523 53.0061 8.57429 52.7164 8.57429C52.5309 8.57429 52.3371 8.64792 52.1684 8.7812C52.0626 8.86012 51.446 9.86604 51.3748 9.97684C51.3752 9.97775 51.3752 9.97776 51.3757 9.9789C50.902 10.7162 50.3372 11.52 49.7 11.8373C49.531 11.9169 49.3507 11.96 49.1761 11.96C48.8019 11.96 48.426 11.69 48.3021 11.3379C49.2716 10.9438 49.8557 10.2746 50.1416 9.83117C50.5086 9.26157 50.6979 8.69931 50.6045 8.09645C50.5211 7.55254 50.023 7.18366 49.3404 7.18366C49.3404 7.18366 48.9525 7.17976 48.6442 7.30616C47.1356 7.92187 46.837 9.19803 46.837 10.1165C46.837 10.5267 46.8374 10.4808 46.9089 10.9701C45.9753 11.1539 44.9235 10.7953 44.5005 10.4808C44.4407 10.8272 44.5019 11.1254 44.6811 11.3654C44.9601 11.74 45.513 11.9554 46.1964 11.9554C46.4796 11.9554 46.8412 11.8983 47.1227 11.824C47.6463 12.8122 48.5714 13.1042 49.1244 13.1042C50.3502 13.1042 51.1895 11.8696 51.4855 11.2252C51.4855 11.2252 51.6087 10.9591 51.6781 10.8731C51.7413 10.7894 51.815 10.7318 51.8928 10.7249C52.0118 10.7144 52.0335 10.7907 52.0335 10.7907C52.0557 10.8307 52.0375 11.0344 52.0389 11.0339C52.0039 11.726 52.1545 12.391 52.5204 12.818C52.7731 13.1132 53.0906 13.269 53.4392 13.2687C54.9088 13.2667 55.7261 11.4884 55.7261 11.4884C55.7261 12.2754 56.4053 13.193 57.2914 13.193C57.6828 13.193 58.3678 13.0347 58.9393 12.3172C59.0099 13.319 59.6202 13.9262 60.4156 13.9262C61.3329 13.9262 62.2818 12.9776 62.8332 11.5113L62.9114 11.3023C63.0528 12.3142 63.7316 13.149 64.7025 13.149C65.3567 13.1694 66.0105 12.9583 66.602 12.6005C66.602 12.6005 67.211 13.3424 68.64 13.2091C70.0294 13.0799 71 11.7184 71 10.5618C71 10.215 70.8051 9.82475 70.5071 9.81236ZM12.0589 25.1195C11.6784 25.2719 11.3619 26.0066 11.0834 26.6551C10.7809 27.3566 10.5205 27.9618 10.1571 27.9618C9.99981 27.9618 9.7267 27.8764 9.66105 27.306C9.60593 26.8207 9.7361 26.1422 9.97136 25.5678C10.259 24.8681 10.6908 24.3134 11.2906 24.3134C11.9545 24.3134 12.1469 25.0835 12.1469 25.0835L12.0589 25.1195ZM21.5111 28.1726C21.0979 27.3679 21.1295 26.0841 21.1374 25.9362C21.1858 24.9651 20.7623 24.3029 20.0451 24.3029C19.2132 24.3029 18.3985 25.1595 18.0537 25.7339L17.8563 26.0647L17.8691 25.6781C17.8884 25.1211 17.762 24.6823 17.5032 24.4084C17.3103 24.204 17.0441 24.0916 16.7546 24.0916C16.5747 24.0916 16.3984 24.1368 16.2718 24.2159C15.6583 24.5986 15.3431 25.3359 15.0386 26.0475C14.9853 26.1722 14.9333 26.3053 14.8775 26.4454C14.5853 27.1828 14.2551 28.0183 13.6472 28.0183C13.5092 28.0183 13.3936 27.9652 13.3026 27.8607C12.9762 27.4858 13.0382 26.5118 13.1283 25.7056C13.1467 25.5492 13.163 25.4017 13.1738 25.2664C13.1476 25.137 12.8895 24.9158 12.6679 24.8716L12.6547 24.8082C12.483 24.0439 11.8819 23.5098 11.1927 23.5098C10.9776 23.5098 10.7605 23.561 10.5483 23.6596C9.6122 24.0971 8.84056 25.3519 8.67117 26.7091C8.52374 27.8907 8.71105 28.9487 9.16095 29.471C9.44797 29.8057 9.83873 29.9236 10.3108 29.8195C10.6236 29.75 10.9845 28.8101 11.2489 28.1251C11.5566 27.3264 11.7143 26.941 11.9267 26.941C12.0058 26.941 12.0679 26.9979 12.0679 26.9979L12.0634 27.0614C12.0074 27.8838 12.2204 28.6674 12.6188 29.1047C12.8328 29.3396 13.0835 29.4588 13.3627 29.4588C14.2618 29.4588 15.0767 27.9235 15.6711 26.8026C16.0491 26.0874 16.2554 25.7128 16.4331 25.6721C16.5328 25.6486 16.6189 25.6758 16.6789 25.7478C16.8951 26.0094 16.7537 26.8726 16.652 27.5011C16.6133 27.7333 16.5823 28.0667 16.5823 28.0667C16.5523 28.5961 16.5967 29.1535 17.0141 29.3169C17.0977 29.3497 17.2267 29.3666 17.3771 29.3666C17.4851 29.3666 17.5987 29.3584 17.6809 29.3416C17.7275 29.332 17.7309 29.2827 17.7313 29.2671C17.5852 27.5842 18.2265 26.5678 18.5401 26.134C18.8318 25.7297 19.1299 25.5903 19.3799 25.5903C20.0115 25.5903 20.0451 26.5035 20.0787 27.3858C20.107 28.1419 20.1385 28.9191 20.5203 29.1118C20.8351 29.27 21.2991 29.0182 21.4887 28.781C21.6229 28.6137 21.6462 28.4351 21.5111 28.1726ZM54.4952 26.8043C54.2649 26.4794 54.1533 25.5049 54.4325 24.9438C54.5877 24.6311 54.8196 24.438 55.0981 24.4671C55.4456 24.5029 55.6786 24.9133 55.5077 25.5658C55.3728 26.078 54.8772 26.5691 54.4952 26.8043ZM45.7595 28.1208C45.362 28.1465 44.967 27.8902 44.8272 27.5331C44.6515 27.0492 44.7958 26.5782 44.963 26.0334C45.0835 25.6393 45.2081 25.2326 45.2247 24.7729L45.2305 24.616C45.9466 24.8456 46.7281 25.9869 46.7993 26.8412C46.8453 27.3729 46.5681 28.0692 45.7595 28.1208ZM39.6885 28.118C39.5942 28.118 39.4557 28.0807 39.3645 27.8866C38.926 26.9448 39.6488 25.0801 39.6488 25.0801C40.146 25.0897 40.8935 25.0051 41.3472 24.8681C41.3472 24.8681 40.6748 28.118 39.6885 28.118ZM63.1047 27.1217C63.0812 27.0802 63.0391 27.0545 62.9757 27.0426C62.7353 27.0219 62.6132 27.2314 62.4552 27.5011C62.4261 27.5528 62.3934 27.6149 62.3582 27.6812C62.1982 27.9859 61.8834 28.4828 61.5276 28.4828C61.1393 28.4828 61.0425 27.9843 61.0452 27.5516C61.0492 27.002 61.19 26.315 61.3006 25.8015C61.438 25.1682 61.5677 24.5697 61.4552 24.3013C61.1805 23.6399 60.3675 23.5013 59.7338 23.5013C59.4894 23.5013 59.2729 23.5229 59.134 23.5406L59.0092 23.5566L59.0059 23.4279C58.9853 22.7189 58.4991 22.4603 58.0507 22.4557H58.0413C57.6508 22.4557 57.1991 22.6764 57.1675 23.0763C57.1144 23.7436 57.6315 24.0597 57.8845 24.2283C58.0294 24.3251 58.1166 24.3829 58.1157 24.4889C58.111 24.9984 57.9497 25.8384 57.6028 26.5691C57.3116 27.1814 56.7792 27.9108 55.956 27.9108H55.9486C55.2857 27.9108 54.9688 27.5007 54.9664 27.497C54.9664 27.497 56.5798 26.5918 56.5269 24.8605C56.4978 23.9 55.9291 23.3499 55.0744 23.3499H55.0739C54.6408 23.3499 54.1802 23.6002 53.8723 24.0042C53.2022 24.8821 53.3684 26.4565 53.7464 27.2415C53.3402 27.4346 52.8121 27.5817 52.8121 27.5817C52.8145 27.6158 52.8105 27.5682 52.8105 27.5682C52.6555 24.6341 50.6103 23.3144 50.002 23.3144C49.5516 23.3144 49.4613 23.8156 49.4087 23.9911C49.2194 24.6243 48.8788 25.6418 48.4145 26.4471C48.0717 27.0412 47.7525 27.2601 47.7525 27.2601L47.7437 26.6017C47.6891 25.7937 47.3086 24.9089 46.6994 24.1739C46.1198 23.475 45.4346 23.0462 44.9244 23.0698C44.9244 23.0698 44.5227 23.0455 44.3522 23.3438C44.2498 23.5225 44.3025 23.8294 44.3269 24.1395C44.3495 24.4134 44.3652 24.6979 44.3428 24.9879C44.227 26.4728 43.6285 27.6418 42.9841 27.6418C42.3028 27.6418 42.201 26.5072 42.2295 26.0449C42.2589 25.5683 42.3895 25.1783 42.4623 25.0186C42.4999 24.9362 42.5663 24.8383 42.5663 24.7734C42.5537 24.6006 42.2234 24.413 42.1065 24.3598L42.0805 24.3474L42.0733 24.3194C41.9613 23.8491 41.5408 23.3424 40.8843 23.3424C40.1196 23.3424 39.5794 23.7078 39.2043 24.1668C38.2158 24.068 37.8517 23.5855 37.8517 23.5855L37.8564 23.547C38.0764 21.8859 37.713 20.2384 37.2322 19.5587C36.9817 19.2019 36.3261 19.1193 36.1498 19.9087C35.9378 20.8603 36.0012 22.6283 36.6684 24.1893V24.1946C36.6642 24.6139 36.3252 25.7096 35.83 26.6726C35.3815 27.5432 34.6667 28.5807 33.8144 28.5807C31.8569 28.5807 31.5434 25.3499 31.5943 24.1008C31.6153 23.5855 31.6754 23.1024 31.7672 22.6849C31.9586 22.0192 32.2422 21.6402 32.2062 21.4386C32.1349 21.1883 31.5273 21.0273 30.9492 21.275C30.6024 21.4234 30.3017 22.0022 30.0667 22.6849C29.8569 23.2511 29.6643 23.9271 29.4698 24.5706C29.3701 24.8968 29.2789 25.2363 29.1897 25.5646C28.8408 26.8456 28.5399 27.9504 28.0699 27.9504C28.0036 27.9504 27.9451 27.9173 27.8893 27.8583C27.3159 27.2483 27.2615 25.6806 27.5191 23.8881C27.7918 21.9926 28.2381 20.5921 28.6502 19.4765C29.0116 18.4986 28.7559 18.1102 28.1496 18.0614C27.674 18.0221 27.2035 18.3075 27.2238 18.5477C27.3029 19.4426 26.7834 20.9137 26.4789 23.1031C25.9682 26.7916 26.7885 28.4596 27.0771 29.043C27.3914 29.6779 27.7972 30 28.2818 30C29.1433 30 29.451 28.0177 29.7427 26.5835C30.1679 24.4949 30.627 24.7431 30.627 24.7431C30.627 24.7431 30.2757 29.8778 33.7808 29.8778C34.999 29.8778 36.0196 28.768 36.558 27.8363C37.2207 26.6916 37.5765 25.3177 37.6597 24.819C38.1219 24.9794 38.7587 25.0126 38.7587 25.0126L38.7582 25.0131L38.721 25.0966C38.717 25.1062 38.2821 26.084 38.1719 26.782C38.1024 27.1179 37.9581 28.5002 38.4996 29.1905C38.6865 29.4288 38.9408 29.5509 39.2561 29.5541H39.261C39.8736 29.5541 40.859 28.2664 41.3353 27.4539L41.506 27.1639L41.5468 27.5003C41.634 28.2286 42.1119 29.0122 42.9539 29.0122C43.018 29.0122 43.0847 29.0074 43.1517 28.9983C43.7703 28.914 44.0347 28.4186 44.1476 28.0161L44.2659 27.5982C44.4208 28.8349 45.4306 29.4148 46.1682 29.4148C48.4827 29.4148 49.8624 25.4829 50.0268 24.7858C50.0383 24.7401 50.0851 24.7419 50.1575 24.7796C51.5713 25.5031 52.2739 26.7722 51.8269 27.6986C51.7649 27.8255 51.237 27.8833 50.7342 27.7939C50.2393 27.7063 49.8796 27.4982 49.6793 27.8657C49.3937 28.3903 50.222 29.499 51.2997 29.499C52.5078 29.499 52.7756 28.3665 52.7756 28.3665C52.7756 28.3665 53.5761 28.2483 54.1542 27.9473C54.5528 28.4291 55.0614 28.8847 55.9975 28.8847C56.1962 28.8847 56.4062 28.8587 56.6204 28.8069C57.4238 28.6105 58.0639 27.9411 58.5253 26.8185C58.778 26.2032 58.9646 25.4779 59.0814 24.6617L59.0917 24.5963L59.1504 24.571C59.3769 24.4745 59.609 24.4192 59.8055 24.421C60.4199 24.4284 60.4443 24.8642 60.4443 24.8642C60.4622 25.3063 60.3291 25.7625 60.2005 26.2032L60.1992 26.2083C60.1557 26.3549 60.1118 26.5067 60.0737 26.656C60.0513 26.7474 60.0269 26.8382 60.002 26.9279C59.9003 27.3101 59.8051 27.6698 59.8017 27.968C59.7759 28.6603 60.0697 29.4406 60.9688 29.5656C61.0286 29.5743 61.0887 29.5782 61.1467 29.5782C62.4265 29.5782 63.0747 27.5423 63.0801 27.5211C63.1419 27.3404 63.1498 27.1995 63.1047 27.1217ZM45.4162 7.46927C43.9863 7.46927 42.9411 8.85415 42.6203 9.86787L42.573 9.43752C42.5206 8.96174 42.3081 8.67958 41.9732 8.47679C40.9488 7.85695 37.7473 8.1593 37.7397 8.15976C37.6906 8.16343 37.6792 8.11663 37.6792 8.11663C37.5788 7.76473 37.4829 6.7501 37.4694 5.90201C37.4531 4.85388 37.5743 4.21775 37.8658 4.08516C38.7015 3.70275 42.3944 4.04731 43.1291 4.29185C43.2263 4.32465 43.3572 4.30469 43.426 4.20422C43.5714 3.99156 43.467 3.73211 43.3968 3.56855C43.2431 3.20518 42.9017 2.88402 42.5481 2.76932C42.1885 2.63879 41.638 2.57593 40.8608 2.57593C39.8792 2.57593 38.6787 2.67389 37.4072 2.77804C36.0624 2.88815 34.6723 3.00261 33.4662 3.00261C32.6372 3.00261 31.9839 2.94871 31.4692 2.8386C31.3803 3.0407 31.1652 3.90233 31.6942 4.2634C32.4307 4.75363 34.2 4.46137 34.8003 4.382C35.2475 4.32281 36.1905 4.23564 36.1905 4.23564C36.1905 4.23564 36.1283 5.65104 36.4312 7.04946C36.5002 7.36374 36.6581 8.0368 36.5773 8.16618C36.5564 8.20037 36.5255 8.22285 36.4881 8.23087C36.2728 8.27767 35.9678 8.3013 35.5802 8.3013C34.4207 8.3013 32.8299 8.08245 32.7954 8.08245C32.5875 8.08245 32.3449 8.19945 32.3449 8.52909C32.3449 9.1354 33.2957 10.0195 34.0591 10.7302C34.2796 10.9355 34.487 11.1287 34.6511 11.2966C35.5894 12.2305 36.1141 12.9324 36.461 13.3972C36.895 13.9778 37.0576 14.212 37.4403 14.212C37.8732 14.212 38.0896 14.009 38.13 13.5683C38.1911 12.9008 37.9789 11.1672 37.9572 10.59C37.9353 10.0117 37.8813 9.24505 37.8813 9.24505C37.8887 9.24299 38.7775 9.10787 39.6885 9.14297C41.2257 9.20261 42.2078 9.63549 41.7832 11.5113C41.6741 11.9944 41.5215 12.4833 41.5914 12.8157L41.5923 12.8189C41.6553 13.2228 42.1143 13.2667 42.3099 13.2667C42.4173 13.2667 42.5288 13.2543 42.6297 13.2318C42.6095 11.5556 43.0901 10.303 43.8322 9.52767C44.3692 8.96702 44.9751 8.63531 45.8287 8.64012C46.0752 8.6415 46.3862 8.60984 46.3862 8.32424C46.3862 7.80488 46.0053 7.46927 45.4162 7.46927ZM36.8033 11.3427C36.7182 11.6058 36.579 11.74 36.3897 11.74C35.8643 11.74 34.3927 10.4407 34.3927 9.84402C34.3927 9.33245 35.513 9.27671 35.9945 9.27671C36.2329 9.27671 36.4834 9.29346 36.741 9.31181C36.7751 9.31364 36.8042 9.33612 36.8219 9.36824C36.9537 9.60911 36.9821 10.7953 36.8033 11.3427ZM23.7848 10.0922C23.7992 9.43522 23.9461 8.92504 24.2397 8.50684C24.4937 8.14508 24.837 7.92004 25.1345 7.92004C25.3436 7.92004 25.5345 8.10654 25.5345 8.40981C25.5345 8.41095 25.5345 8.41302 25.5345 8.41439C25.5605 9.78919 23.8785 10.8587 23.8785 10.8587C23.8785 10.8587 23.7743 10.5563 23.7848 10.0922ZM27.959 10.9656C27.1365 11.7395 26.1264 12.2777 25.1894 12.2871C24.787 12.2913 24.4819 11.994 24.3147 11.7022C25.6803 10.7953 26.9469 9.73574 26.9469 8.18568V8.18522C26.9469 6.90334 25.9429 6.4934 25.1829 6.4934C23.8686 6.4934 22.6793 7.6755 22.6793 9.94816C22.6793 10.4485 22.7394 10.9775 22.8758 11.3789C22.8758 11.3789 21.0932 12.3832 20.5707 11.6313C20.215 11.1204 20.5826 9.83461 20.8477 8.92206C21.1228 7.97762 21.2577 7.51216 20.9776 7.18114C20.4457 6.55304 18.4037 6.59686 18.4037 6.59686C18.3569 5.97495 17.9441 5.646 17.3945 5.646C16.9245 5.646 16.6556 6.04584 16.6556 6.53584C16.6556 7.12218 17.0298 7.42086 17.2057 7.52983C17.4183 7.65944 17.5066 7.95055 17.4889 8.2623C17.4362 9.15329 16.7614 11.4978 15.7023 11.4978C15.1513 11.4978 14.6942 11.0688 14.6942 9.97776C14.6942 9.65935 14.7381 9.36641 14.7921 9.19206C14.9174 8.8069 14.9337 8.55616 14.8414 8.42563C14.7774 8.3341 14.6517 8.2896 14.4549 8.2896C13.584 8.2896 13.3927 9.42857 13.2524 9.91628C13.0443 10.6419 12.7131 11.6189 12.0472 11.6189C11.5474 11.6189 11.3908 10.9727 11.3908 10.5047C11.3908 9.25698 11.6995 8.58186 11.6574 8.29923C11.6173 8.03267 11.2989 7.88173 10.8721 7.88173C10.5174 7.88173 10.2732 7.96775 10.2732 7.96775C10.2902 7.95445 11.1602 6.9327 11.1602 5.09039C11.1602 1.58171 8.62412 0 5.80617 0C2.56185 0 0 2.02354 0 5.62122C0.056686 7.98175 1.59506 10.0853 3.47309 10.0076C3.71753 9.99726 3.77825 9.8041 3.7778 9.80181C3.51476 9.64467 1.27174 8.67912 1.57198 5.14476C1.75705 2.88172 3.55129 1.08093 5.57249 1.08093C8.71531 1.08093 9.87031 3.18912 9.87031 5.36246C9.87031 6.15595 9.5824 8.46211 8.3017 8.64563C8.23896 8.65458 8.17444 8.65916 8.11103 8.65916C7.74269 8.65916 7.38577 8.50982 7.10592 8.23959C6.85812 8.00124 6.70486 7.69568 6.70486 7.44128C6.70486 6.1571 6.8514 5.6616 6.96163 5.34755C6.86305 5.32507 6.77006 5.31405 6.68358 5.31405C6.39903 5.31405 6.1687 5.43518 5.95965 5.69646C5.42416 6.34681 5.34462 7.79478 5.34462 8.60044C5.34462 10.6469 5.64978 12.8014 6.06944 13.7234C6.28744 14.2024 6.6773 14.513 7.06178 14.513C7.20898 14.513 7.33849 14.4646 7.43461 14.3735C7.64209 14.1882 7.6367 13.942 7.41937 13.6199L7.41041 13.6062L7.40637 13.5929C7.06872 12.5287 6.86461 11.2468 6.76334 9.55772L6.74631 9.27809C7.28225 9.90297 7.78279 10.0053 8.16055 10.0053C8.76169 10.0053 9.31331 9.62861 9.68637 9.06956C9.68637 9.06956 10.0352 8.81974 10.2723 8.81974C10.7636 8.81974 10.3621 9.7339 10.3045 10.8541C10.2411 12.0563 10.6335 13.3648 11.6995 13.3648C12.2941 13.3648 13.2867 12.7546 13.7084 10.5389C13.8825 12.5693 14.8901 13.068 15.6153 13.068C16.1894 13.068 16.9574 12.6744 17.6768 10.927C18.3427 9.30906 18.3295 7.90627 18.3295 7.90627C18.3295 7.90627 18.4624 7.81635 18.8074 7.81635C19.1843 7.81635 19.8497 7.93564 19.9526 8.38434C20.0142 8.68073 19.8912 9.00877 19.7216 9.46321C19.5338 9.96697 19.2999 10.5932 19.1991 11.4638C19.1316 12.0419 19.256 12.5466 19.5486 12.8843C19.8083 13.1825 20.193 13.3396 20.6633 13.3396C21.3166 13.3396 22.2348 13.0235 23.2399 12.3704C23.5885 12.9831 24.1534 13.2972 24.8175 13.2972C25.644 13.2972 26.2497 12.9976 26.9252 12.503C27.5436 12.0508 28.0493 11.4032 28.0934 11.0282C28.0934 10.8938 27.9966 10.9059 27.959 10.9656Z" fill="white"/>
</svg>
