<svg width="85" height="68" viewBox="0 0 85 68" fill="none" xmlns="http://www.w3.org/2000/svg">
<path d="M73.1794 37.2001C72.1225 37.3721 71.5321 37.4345 70.9523 37.4345C69.5638 37.4345 67.5776 37.0303 65.4957 36.3253L62.3755 35.2677C60.7233 34.7085 58.2665 34.2483 56.9168 34.2483C55.5789 34.2483 53.1131 34.7097 51.4677 35.2677L48.3467 36.3253C46.2666 37.0303 44.2782 37.4345 42.8898 37.4345C41.5006 37.4345 39.5122 37.0303 37.4311 36.3253L34.3108 35.2677C32.6629 34.7097 30.1989 34.2483 28.8592 34.2483C27.5135 34.2491 25.0516 34.7085 23.403 35.2677L20.2824 36.3253C18.2001 37.0303 16.2139 37.4345 14.8255 37.4345C14.2463 37.4345 13.656 37.3721 12.5991 37.2001L12.7282 37.4173C13.0281 37.9173 13.1866 38.1338 13.5908 38.5997C14.1385 38.675 14.3574 38.6914 14.7961 38.6914C16.1884 38.6914 18.4628 38.2556 20.2824 37.6428L23.403 36.5887C25.5204 35.8744 27.4618 35.4791 28.8592 35.4791C30.0398 35.4791 32.1031 35.8579 33.5349 36.3378L37.4311 37.6428C39.2706 38.2574 41.5261 38.6914 42.8909 38.6914C44.2563 38.6914 46.5103 38.2567 48.3467 37.6428L52.2436 36.3378C53.6751 35.8579 55.7405 35.4791 56.9204 35.4791C58.3199 35.4802 60.2566 35.8744 62.3755 36.5887L65.4957 37.6428C67.3142 38.2556 69.5897 38.6914 70.9803 38.6914C71.4175 38.6914 71.6383 38.675 72.1916 38.5997C72.6271 38.0832 72.7587 37.9026 73.0497 37.4173L73.1794 37.2001Z" fill="white"/>
<path d="M68.5256 41.5901L63.9833 40.1948C61.9404 39.5673 61.1505 39.3473 60.0621 39.1071C58.9094 38.8519 57.7544 38.705 56.9185 38.705C55.6011 38.705 53.0876 39.1741 51.4677 39.7224L48.3467 40.7801C46.2355 41.4955 44.2911 41.89 42.8729 41.89C41.448 41.89 39.5223 41.4987 37.4002 40.7801L34.28 39.7224C32.664 39.1749 30.1415 38.705 28.8224 38.705C27.9919 38.705 26.8264 38.8537 25.6817 39.1071C24.6051 39.3454 23.7514 39.5819 21.7601 40.1948L17.2228 41.5901C17.7077 42.0309 17.836 42.133 18.3793 42.5011L20.9021 41.7331L22.9858 41.1177L23.8227 40.8704C26.0397 40.2163 27.5436 39.9357 28.8252 39.9357C29.9892 39.9357 32.0949 40.3214 33.4994 40.793L37.4002 42.1022C39.227 42.714 41.4899 43.1462 42.8737 43.1462C44.2531 43.1462 46.5358 42.7108 48.3467 42.1022L52.2436 40.793C53.6417 40.3235 55.7602 39.9346 56.9204 39.9357C58.2062 39.9357 59.6979 40.2142 61.9204 40.8704L62.7572 41.1177L64.8417 41.7331L67.3684 42.5011C67.9091 42.1298 68.0379 42.0291 68.5256 41.5901Z" fill="white"/>
<path d="M63.4414 44.5458L63.1554 44.4418L62.3755 44.1816C60.1122 43.4989 58.3009 43.1588 56.9174 43.1588C55.7591 43.1588 53.7987 43.492 52.2436 43.9522L51.4677 44.1816C51.0738 44.3117 50.8111 44.3978 50.6831 44.4418L49.9032 44.7106L49.1273 44.9748L48.3467 45.2399C45.9785 46.0062 44.2911 46.3492 42.8898 46.3492C41.682 46.3492 39.8918 46.0187 38.2109 45.4866L37.4311 45.2399L36.6516 44.9748L35.8749 44.7106L35.0947 44.4418L34.3108 44.1816C32.0504 43.4989 30.2344 43.1588 28.8593 43.1588C27.6934 43.1598 25.7358 43.4914 24.1778 43.9522L23.403 44.1816C22.85 44.3601 22.7361 44.3999 22.336 44.5458L23.9051 45.36L24.2567 45.2532C26.0859 44.6881 27.6615 44.3935 28.8632 44.3935C29.8739 44.3935 31.4544 44.6511 32.7543 45.0267L33.5349 45.2532L34.3108 45.5045L35.0947 45.7636L35.8749 46.0331L36.6516 46.2965L37.4311 46.5571C39.7732 47.2757 41.497 47.6064 42.8909 47.6057C44.0869 47.6047 45.9143 47.2868 47.5672 46.7908L48.3467 46.5571L49.1273 46.2965L49.9032 46.0331L50.6831 45.7636L51.4677 45.5045L52.2436 45.2532C54.2341 44.6622 55.7007 44.3935 56.9204 44.3945C58.122 44.3945 59.6947 44.6887 61.5225 45.2532L61.8734 45.36L63.4414 44.5458Z" fill="white"/>
<path d="M18.8872 26.1141V29.53C18.1076 29.8569 17.3285 30.0206 16.5522 30.0206C14.551 30.0206 13.1443 28.4749 13.1443 26.2758C13.1443 23.9068 14.8255 22.2553 17.2382 22.2553C18.5876 22.2553 19.9233 22.6312 21.5429 23.4663V21.1955C19.4735 20.3497 18.4521 20.1084 16.9232 20.1084C12.6984 20.1084 10 22.4983 10 26.2399C10 29.7995 12.6181 32.1667 16.5548 32.1667C18.3095 32.1667 20.3907 31.6029 21.9074 30.7163V26.1141H18.8872Z" fill="white"/>
<path d="M24.4126 20.4415V31.835H27.3855V22.5915H28.6679C30.348 22.5915 31.1017 23.1276 31.1017 24.3226C31.1017 25.5436 30.2592 26.2407 28.7797 26.2407L28.1267 26.2235H27.7923L31.9229 31.835H35.7232L31.9353 27.2543C33.3421 26.6195 34.0922 25.4924 34.0922 24.0115C34.0922 21.5984 32.5281 20.4415 29.2661 20.4415H24.4126Z" fill="white"/>
<path d="M52.0791 20.4415V31.835H55.0513V26.964H60.304V31.835H63.2769V20.4415H60.304V24.6537H55.0513V20.4415H52.0791Z" fill="white"/>
<path d="M66.4501 20.4415V31.835H75V29.6032H69.418V26.8955H73.5227V24.7494H69.418V22.6739H74.3496V20.4415H66.4501Z" fill="white"/>
<path fill-rule="evenodd" clip-rule="evenodd" d="M39.0779 26.1411C39.0779 23.7886 40.6688 22.1486 42.9515 22.1486C45.2351 22.1486 46.826 23.79 46.826 26.1418C46.826 28.4879 45.2302 30.1322 42.9515 30.1322C40.6735 30.1322 39.0768 28.4871 39.0779 26.1411ZM35.9441 26.1411C35.9441 29.681 38.9098 32.278 42.9515 32.278C46.9949 32.278 49.9602 29.6802 49.9602 26.1411C49.9602 22.5933 47.0003 20 42.9515 20C38.9036 20 35.9441 22.5933 35.9441 26.1411Z" fill="white"/>
<rect x="0.5" y="0.5" width="84" height="67" stroke="white"/>
</svg>
