<svg version="1.1" xmlns="http://www.w3.org/2000/svg" x="0px" y="0px" viewBox="0 0 471.7 471.7" style="enable-background:new 0 0 471.7 471.7;" xml:space="preserve"><style id="stylish-1" class="stylish" type="text/css">.swap:hover {
    transform: rotate(180deg);
    transition: 200ms;
}
.swap{
    transition: 200ms;
}
.calc .popular div.items .item:hover {
    animation-name: bloop;
    animation-duration: 1s;
    animation-iteration-count: infinite;
    animation-timing-function: linear;
}

@keyframes bloop {
    from {
        border:1px;
    	
        }
    to {
		border:1px;
        }
}</style>
<style>.st0{fill:#ED6B33;stroke:#ED6B33;stroke-miterlimit:10;}</style>
<path class="st0" d="M433.6,67c-24.7-24.7-57.4-38.2-92.3-38.2s-67.7,13.6-92.4,38.3L236,80l-13.1-13.1  c-24.7-24.7-57.6-38.4-92.5-38.4c-34.8,0-67.6,13.6-92.2,38.2C13.5,91.4-0.1,124.2,0,159.1c0,34.9,13.7,67.6,38.4,92.3l187.8,187.8  c2.6,2.6,6.1,4,9.5,4s6.9-1.3,9.5-3.9l188.2-187.5c24.7-24.7,38.3-57.5,38.3-92.4C471.8,124.5,458.3,91.7,433.6,67L433.6,67z"/>
</svg>