<svg width="85" height="68" viewBox="0 0 85 68" fill="none" xmlns="http://www.w3.org/2000/svg"><path d="M73.18 37.2c-1.058.172-1.648.234-2.228.234-1.388 0-3.374-.404-5.456-1.109l-3.12-1.057c-1.653-.56-4.11-1.02-5.46-1.02-1.337 0-3.803.462-5.448 1.02l-3.121 1.057c-2.08.705-4.069 1.11-5.457 1.11-1.39 0-3.378-.405-5.459-1.11l-3.12-1.057c-1.648-.558-4.112-1.02-5.452-1.02-1.346.001-3.807.46-5.456 1.02l-3.12 1.057c-2.083.705-4.07 1.11-5.458 1.11-.579 0-1.169-.063-2.226-.235l.13.217c.3.5.458.717.862 1.183.548.075.766.091 1.205.091 1.392 0 3.667-.435 5.486-1.048l3.121-1.054c2.117-.715 4.059-1.11 5.456-1.11 1.18 0 3.244.379 4.676.859l3.896 1.305c1.84.614 4.095 1.048 5.46 1.048 1.365 0 3.62-.434 5.456-1.048l3.897-1.305c1.431-.48 3.496-.859 4.676-.859 1.4.001 3.337.395 5.456 1.11l3.12 1.054c1.818.613 4.094 1.048 5.484 1.048a7.42 7.42 0 001.212-.091c.435-.517.567-.697.858-1.183l.13-.217zm-4.654 4.39l-4.543-1.395c-2.043-.628-2.832-.848-3.92-1.088-1.154-.255-2.309-.402-3.145-.402-1.317 0-3.83.47-5.45 1.017l-3.121 1.058c-2.111.715-4.056 1.11-5.474 1.11-1.425 0-3.35-.391-5.473-1.11l-3.12-1.058c-1.616-.547-4.139-1.017-5.458-1.017-.83 0-1.996.149-3.14.402-1.077.238-1.93.475-3.922 1.088l-4.537 1.395c.485.44.613.543 1.156.911l2.523-.768 2.084-.615.837-.248c2.217-.654 3.72-.934 5.002-.934 1.164 0 3.27.385 4.674.857l3.901 1.31c1.827.611 4.09 1.043 5.474 1.043 1.38 0 3.662-.435 5.473-1.044l3.897-1.309c1.398-.47 3.516-.858 4.676-.857 1.286 0 2.778.278 5 .934l.837.248 2.085.615 2.526.768a8.48 8.48 0 001.158-.91zm-5.085 2.956l-.286-.104-.78-.26c-2.263-.683-4.074-1.023-5.458-1.023-1.158 0-3.118.333-4.673.793l-.776.23c-.394.13-.657.216-.785.26l-.78.269-.776.264-.78.265c-2.369.766-4.056 1.11-5.457 1.11-1.208 0-2.998-.331-4.68-.863l-.779-.247-.78-.265-.776-.264-.78-.27-.784-.26c-2.26-.682-4.077-1.022-5.452-1.022-1.166 0-3.123.332-4.681.793l-.775.23c-.553.178-.667.218-1.067.364l1.57.814.35-.107c1.83-.565 3.405-.86 4.607-.86 1.01 0 2.591.258 3.891.634l.78.226.777.252.784.259.78.27.777.263.78.26c2.341.719 4.065 1.05 5.459 1.049 1.196-.001 3.023-.32 4.676-.815l.78-.234.78-.26.776-.264.78-.27.785-.258.776-.252c1.99-.59 3.457-.86 4.676-.858 1.202 0 2.775.294 4.602.858l.351.107 1.568-.814zM18.887 26.114v3.416c-.78.327-1.559.49-2.335.49-2.001 0-3.408-1.545-3.408-3.744 0-2.37 1.681-4.02 4.094-4.02 1.35 0 2.685.375 4.305 1.21v-2.27c-2.07-.846-3.09-1.088-4.62-1.088-4.225 0-6.923 2.39-6.923 6.132 0 3.56 2.618 5.927 6.555 5.927 1.755 0 3.836-.564 5.352-1.45v-4.603h-3.02zm5.526-5.672v11.393h2.973v-9.244h1.282c1.68 0 2.434.537 2.434 1.732 0 1.22-.843 1.918-2.322 1.918l-.653-.017h-.335l4.13 5.611h3.801l-3.788-4.58c1.407-.636 2.157-1.763 2.157-3.243 0-2.414-1.564-3.57-4.826-3.57h-4.853zm27.667 0v11.393h2.971v-4.871h5.253v4.871h2.973V20.442h-2.973v4.212h-5.253v-4.212H52.08zm14.37 0v11.393H75v-2.232h-5.582v-2.708h4.105V24.75h-4.105v-2.075h4.932v-2.232h-7.9z" fill="#fff"/><path fill-rule="evenodd" clip-rule="evenodd" d="M39.078 26.141c0-2.352 1.59-3.992 3.873-3.992 2.284 0 3.875 1.641 3.875 3.993 0 2.346-1.596 3.99-3.874 3.99-2.279 0-3.875-1.645-3.874-3.99zm-3.134 0c0 3.54 2.966 6.137 7.008 6.137 4.043 0 7.008-2.598 7.008-6.137C49.96 22.593 47 20 42.952 20s-7.008 2.593-7.008 6.141z" fill="#fff"/><path stroke="#fff" d="M.5.5h84v67H.5z"/></svg>