<svg width="252" height="49" viewBox="0 0 252 49" fill="none" xmlns="http://www.w3.org/2000/svg"><path d="M13.5 17.9c-4.6 1.4-8.8 1-13.5-2 0 1.1.1 2.7.2 3.7 2.4 1.9 8.1 3.2 14.2 1.2 10.8-3.6 15.8 2.1 17 3.2.3-1 .6-2.2.8-3.2-6.3-5.6-12.9-4.7-18.7-2.9z" fill="#5AA5DC"/><path d="M12.8 24.2c-4.4 1.5-7.6 1.4-12-.9C3.8 36 14 46.5 14.5 47l1 1.1 1.1-1c.5-.5 9.4-9.1 13.6-20 .2-.3-5.7-6.8-17.4-2.9zm2.9 19.6c-2.1-2.4-7-8.4-10-15.6 2.1.2 4.7 0 8.1-1 7-2 10.6-.5 12.8.9-3.4 7.3-8.7 13.3-10.9 15.7zM16.6 0h-.3C8.5 0 1.9 5.5.4 12.8c2.2 1.3 5.8 4.4 14.6 1.8 4.4-1.3 10-3 17.4 3v-1C32.7 7.6 25.5.2 16.6 0zm-2.5 11.7c-5.7 1.7-8.7.7-10.2-.2 2-5 6.8-8.5 12.3-8.5h.3c5.6.1 10.4 3.8 12.2 8.8-4.7-2.3-9.2-1.8-14.6-.1zm209.8-5.9h-16.4v2.9h6.4V28h3.4V8.6h6.6V5.8zm27.3 6.2h-12.5v2.9h4.6v12.9h3.3V14.9h4.6V12z" fill="#5AA5DC"/><path d="M149.3 27.8h3.2V12h-3.2l-.1 6h-5.8v-6h-3.3v15.8h3.3v-6.6h5.9v6.6zm47.6-9c0-2.6.1-3.2-1.5-3.8-1.7-.6-3.8-.2-5.1 1-.3-.3-1.5-1.6-1.9-1.9.9-1.1 2-1.8 3.3-2.1 1.7-.4 3.4-.4 5.1.2 1.4.5 2.5 1.4 3.1 2.8.3.6.4 1.2.4 1.9v10.3c-.9.4-1.9.6-2.8.8-1.5.3-3 .4-4.5.2-1.2-.1-2.4-.4-3.4-1.1-1.5-1.1-1.9-2.6-1.7-4.3.3-2.6 2.1-3.8 4.2-4.3 1.5-.3 2.9-.2 4.3.2.2 0 .3 0 .5.1zm.1 2.6c-1-.4-2.3-.6-3.4-.5-.5.1-1 .2-1.4.5-.7.5-1.1 1.2-1 2.1.1.9.7 1.4 1.6 1.6.9.2 2.9.2 4.2-.2v-3.5zm-9.7-9.4h-4.2c-1.9 2.1-4.3 4.6-6.2 6.6V12h-3.3v15.8h3.3v-4.7l1.4-1.5 4.8 6.2h3.9c-2.5-3.2-5.3-6.9-6.5-8.5l6.8-7.3zm-21.5 0L160 22.7V12h-3.3v15.8h3.8l5.8-10.6v10.6h3.3V12h-3.8zm-33.1 7.9l5.2-7.9H134l-3.3 5.3-3.4-5.3h-3.9l5.4 7.9-5.4 7.9h3.9l3.4-5.2 3.3 5.2h3.9l-5.2-7.9zm-11.8 5c-1.3 2-3.1 3.1-5.4 3.2-1.5.1-2.9-.2-4.1-1-1.4-.9-2.3-2.1-2.4-3.8-.1-1.2-.1-5.8 0-7 .1-1.7 1-2.9 2.5-3.7 1.4-.8 3-1.1 4.6-.9 1.2.1 2.3.5 3.3 1.2 1.3.9 1.9 2.2 2 3.7.1 1.6.1 4.9.1 4.9h-9.1s0 1.1.1 1.6c.2 1 1 1.5 1.9 1.7 1.3.3 2.9 0 3.8-1.5.8.5 1.7 1 2.7 1.6zm-2.8-6.3v-1.7c0-.8-.5-1.3-1.2-1.6-1.1-.5-2.2-.5-3.3-.1-.7.3-1.2.8-1.3 1.5-.1.6 0 1.2 0 1.9h5.8zM106.9 12H94.5v2.9H99v12.9h3.4V14.9h4.5V12zm-18.3 0v6h-5.9v-6h-3.3v15.8h3.3v-6.6h5.9v6.6h3.3V12h-3.3zm-16.3 6.8c0-2.6.1-3.2-1.5-3.8-1.7-.6-3.8-.2-5.1 1-.3-.3-1.5-1.6-1.9-1.9.9-1.1 2-1.8 3.4-2.1 1.7-.4 3.4-.4 5.1.2 1.4.5 2.5 1.4 3.1 2.8.3.6.4 1.2.4 1.9v10.3c-.9.4-1.9.6-2.8.8-1.5.3-3 .4-4.5.2-1.2-.1-2.4-.4-3.4-1.1-1.5-1.1-1.9-2.6-1.7-4.3.3-2.6 2.1-3.8 4.2-4.3 1.5-.3 2.9-.2 4.3.2 0 0 .2 0 .4.1zm0 2.6c-1-.4-2.3-.6-3.4-.5-.5.1-1 .2-1.4.5-.7.5-1.1 1.2-1 2.1.1.9.7 1.4 1.6 1.6.9.2 2.9.2 4.2-.2v-3.5zm-13.6.3c1 .5 2.1 1 3.1 1.5-.6 1.2-1.4 2.2-2.4 3.1-1.8 1.4-3.7 2-6 2-2-.1-3.9-.6-5.5-1.8-1.5-1.2-2.5-2.7-2.5-4.7v-9.5c0-1.7.8-3.2 2.2-4.3 2-1.7 4.3-2.2 6.8-2.1 3.4.2 5.8 1.9 7.4 4.9-1.1.5-2.1 1-3.1 1.5-.5-.5-.9-1.1-1.4-1.6-1-.9-2.3-1.3-3.6-1.3-1.1 0-2.2.2-3.1.8-1.1.6-1.7 1.5-1.7 2.8v7.8c0 1.6.7 2.7 2.1 3.3 2.1.9 4.1.8 6.1-.6.5-.4 1.1-1.2 1.6-1.8z" fill="#6D6F73"/><path d="M227.1 12v10c0 1.9 1 2.7 2.5 3 1.1.2 2.1.1 3.1-.4.1-.1.2-.2.4-.3V11.9h3.3v15.9c0 .7 0 1.4-.2 2.1-.5 1.7-1.6 2.9-3.2 3.5-2.8 1-5.4.7-7.8-1-.5-.3-.9-.8-1.3-1.3.7-.7 1.4-1.3 2.1-1.9.2.2.3.3.5.4 1.4 1.2 3 1.6 4.8 1.1 1.2-.3 2.3-1.7 1.9-3.2-1.2.4-2.4.6-3.6.5-2.1-.2-3.9-1-5.1-2.9-.4-.7-.7-1.5-.7-2.3V11.9l3.3.1z" fill="#5AA5DC"/><path d="M177.6 42.6c-.3.6-.7.9-1.4 1.1h-.8c-.4 0-.7-.1-1.1-.3-.3-.2-.5-.5-.5-.9v-3.3c0-.5.3-.8.7-1 .4-.2.8-.3 1.2-.3.5 0 1.1.1 1.5.4.2.1.3.3.4.5.1 0 .2-.1.3-.1.2-.1.5-.3.7-.4-.5-.9-1.2-1.3-1.9-1.5-.2-.1-.4-.1-.6-.1h-.7c-.2 0-.4.1-.6.1-1.1.3-2.1 1-2.2 2.5v3.1c0 .7.3 1.3.9 1.8 1.1.9 3.1 1 4.3 0 .4-.3.7-.7.9-1.3-.3-.2-.6-.3-1-.4-.1 0-.1.1-.1.1zm-115-4.7h2.5v6.8h1.2v-6.8h2.5v-1.2h-6.2v1.2zm38.1 0h2.5v6.8h1.2v-6.8h2.5v-1.2h-6.2v1.2zm95.1 0h2.4v6.8h1.3v-6.8h2.4v-1.2h-6.1v1.2zm-84.4 1.6h-4v1.2h4v-1.2zm-51.3.5h-3.7v-3.3h-1.2v8h1.2v-3.6h3.7v3.6h1.3v-8h-1.3V40zm30.6 0H87v-3.3h-1.3v8H87v-3.6h3.7v3.6h1.2v-8h-1.2V40zm74.3 0h-3.7v-3.3h-1.2v8h1.2v-3.6h3.7v3.6h1.3v-8H165V40zm28.2 0h-3.7v-3.3h-1.2v8h1.2v-3.6h3.7v3.6h1.2v-8h-1.2V40zm30 0h-3.7v-3.3h-1.2v8h1.2v-3.6h3.7v3.6h1.2v-8h-1.2V40zm-91.8 4.6v.1h1.2v-6.8h3.6v-1.2h-4.8v7.9zm-79.8-7.9L48.2 43v-6.3H47v8h1.6l3.4-6.2v6.2h1.2v-8h-1.6zm104.6 0l-3.4 6.3v-6.3h-1.2v8h1.6l3.4-6.2v6.2h1.2v-8h-1.6zm75.1 0l-3.4 6.3v-6.3h-1.2v8h1.6l3.4-6.2v6.2h1.2v-8h-1.6zm15.9 0l-3.4 6.3v-6.3h-1.2v8h1.5l3.4-6.2v6.2h1.3v-8h-1.6zm-172.5.6c-.5-.4-1.1-.6-1.8-.7-.9-.1-1.7.1-2.4.5s-1.1 1.1-1.1 1.9v3.4c0 .8.4 1.5 1.1 1.9 1 .7 2.1.7 3.3.3.7-.3 1.3-.8 1.6-1.5-.4-.2-.7-.3-1-.4-.2.2-.4.5-.6.6-.7.5-1.8.5-2.5.1-.3-.2-.6-.5-.6-.9v-1.2h4.9V39c0-.7-.3-1.3-.9-1.7zm-.2 3h-3.7v-1.2c0-.4.4-.9.9-1.1.8-.3 1.5-.3 2.2.2.4.3.6.6.6 1.1v1zm24.6-3c-.5-.4-1.1-.6-1.8-.7-.9-.1-1.7.1-2.4.5s-1.1 1.1-1.1 1.9v3.4c0 .8.4 1.5 1.1 1.9 1 .7 2.1.7 3.3.3.7-.3 1.3-.8 1.6-1.5-.4-.2-.7-.3-1-.4-.2.2-.4.5-.6.6-.7.5-1.8.5-2.5.1-.3-.2-.6-.5-.6-.9v-1.2h4.9V39c-.1-.7-.4-1.3-.9-1.7zm-.3 3h-3.7v-1.2c0-.4.4-.9.9-1.1.8-.3 1.5-.3 2.2.2.4.3.6.6.6 1.1v1zm109.1-3c-.5-.4-1.1-.6-1.8-.7-.9-.1-1.7.1-2.4.5s-1.1 1.1-1.1 1.9v3.4c0 .8.4 1.5 1.1 1.9 1 .7 2.1.7 3.3.3.7-.3 1.3-.8 1.6-1.5-.4-.2-.7-.3-1-.4-.2.2-.4.5-.6.6-.7.5-1.8.5-2.5.1-.3-.2-.6-.5-.6-.9v-1.2h4.9V39c-.1-.7-.4-1.3-.9-1.7zm-.3 3h-3.7v-1.2c0-.4.4-.9.9-1.1.8-.3 1.5-.3 2.2.2.4.3.6.6.6 1.1v1zm-23.2-3.5c-.8-.3-1.6-.4-2.5-.1-.7.2-1.3.5-1.8 1.1.2.3.7.8.7.8l.1-.1c.8-.7 1.8-.9 2.8-.5.4.2.9.5.9 1v1.3c-.2 0-.3-.1-.4-.1-.9-.3-1.8-.4-2.6-.1-.8.2-1.4.6-1.7 1.4-.2.4-.2.8-.2 1.2.1.8.5 1.5 1.2 1.9.5.3 1.4.4 2 .4.6 0 1.6-.2 1.9-.2.5-.1 1.1-.3 1.1-.3v-5.2c.1-1.3-.4-2-1.5-2.5zm.4 6.9c-.3 0-.5.1-.8.1-.6 0-1.2.1-1.7 0-1-.2-1.3-1-1.1-1.7.1-.7.6-1 1.2-1.2.8-.2 1.6 0 2.4.2v2.6zm-43.6-6.9c-.8-.3-1.6-.4-2.5-.1-.7.2-1.3.5-1.8 1.1.2.3.7.8.7.8l.1-.1c.8-.7 1.8-.9 2.8-.5.4.2.9.5.9 1v1.3c-.2 0-.3-.1-.4-.1-.9-.3-1.8-.4-2.7-.1-.8.2-1.4.6-1.7 1.4-.2.4-.2.8-.2 1.2.1.8.4 1.5 1.2 1.9.6.3 1.4.4 2 .4.6 0 1.6-.2 1.9-.2.5-.1 1.1-.3 1.1-.3v-5.2c.2-1.3-.3-2-1.4-2.5zm.4 6.9c-.3 0-.5.1-.8.1-.6 0-1.2.1-1.7 0-1-.2-1.3-1-1.1-1.7.1-.7.6-1 1.2-1.2.8-.2 1.6 0 2.4.2v2.6zm-13.9-6.9c-.8-.3-1.6-.4-2.5-.1-.7.2-1.3.5-1.8 1.1.2.3.7.8.7.8l.1-.1c.8-.7 1.8-.9 2.8-.5.4.2.9.5.9 1v1.3c-.1 0-.3-.1-.4-.1-.9-.3-1.8-.4-2.7-.1-.8.2-1.4.6-1.7 1.4-.2.4-.2.8-.2 1.2.1.8.4 1.5 1.2 1.9.5.3 1.4.4 2 .4.6 0 1.6-.2 1.9-.2.5-.1 1.1-.3 1.1-.3v-5.2c.1-1.3-.4-2-1.4-2.5zm.3 6.9c-.3 0-.5.1-.8.1-.6 0-1.2.1-1.7 0-1-.2-1.3-1-1.1-1.7.1-.7.6-1 1.2-1.2.8-.2 1.6 0 2.4.2v2.6zm-45-6.4c-.7-.6-1.5-.8-2.4-.7-.7 0-1.4.1-2.1.3-.2.1-.6.2-.8.3v10.3h1.2v-3.1s.9.5 2.1.4c.7 0 1.3-.2 1.8-.6.7-.5 1.1-1.1 1.1-1.9V39c-.1-.7-.4-1.2-.9-1.7zm-.4 4.8c0 .8-.5 1.4-1.4 1.5-.7.1-1.3 0-2-.2-.1 0-.2-.1-.4-.1v-5.4c.3 0 .5-.1.8-.1.6 0 1.1-.1 1.7 0 .3.1.5.2.7.4.4.3.5.7.5 1.1.1.9.1 1.9.1 2.8zm132.7-5.4l-2.1 3-2-3h-1.5l2.8 4-2.7 4h1.4l2-2.9 2 2.9h1.5l-2.7-4 2.7-4h-1.4zm-97.7 5.1l-2.4-5.1h-1.6v8h1.3v-5.9l2.3 4.9h.8l2.3-4.9v5.9h1.2v-8H120l-2.4 5.1zm31.3-1.3c-.1 0-.1-.1-.2-.1.1 0 .1-.1.1-.1s.1 0 .1-.1c.5-.4.7-.9.7-1.5 0-.9-.5-1.6-1.4-1.9-.6-.2-1.1-.3-1.7-.2-.9.1-1.7.5-2.3 1.4.3.2.6.4.8.6l.5-.5c.7-.4 1.4-.4 2.1-.2.3.1.6.3.6.7.1.7-.2 1.3-.9 1.4-.4.1-.8.1-1.6.1v1h1c.4 0 .7 0 1 .1.6.2.8.6.8 1.3 0 .6-.3.9-.8 1.1-.4.1-.8.2-1.2.1-.6 0-1.2-.3-1.6-.8 0 0 0-.1-.1-.1l-.9.6c.2.4.6.8 1 1 .9.6 2.2.6 3.4.2.8-.3 1.4-.9 1.5-1.8.3-.8 0-1.8-.9-2.3zm91-3.8l-3.7 3.7v-3.7H235v8h1.2v-2.6l.9-.9 2.8 3.5h1.5l-3.5-4.3 3.6-3.7h-1.6z" fill="#6D6F73"/></svg>