<svg width="71" height="30" viewBox="0 0 71 30" fill="none" xmlns="http://www.w3.org/2000/svg"><path d="M66.958 11.137s-.467-.469-.467-1.234c0-.84.362-1.221.848-1.25.363-.021.803.172.803.739 0 .928-1.184 1.745-1.184 1.745zm-5.122.457c-.335.626-.753.97-1.175.97-.447 0-.58-.38-.588-.635-.034-1.053 1.163-2.248 1.866-2.248.362 0 .42.125.42.125a4.977 4.977 0 01-.523 1.788zm-13.41-2.546c.259-.315.608-.517.889-.517.117 0 .22.037.293.105.148.14.18.376.102.628-.166.54-.839 1.14-1.696 1.424a1.956 1.956 0 01.411-1.64zm22.081.764c-.032-.001-.101-.002-.101.016-.033.644-.85 2.215-2.098 2.215-.466 0-.714-.235-.711-.232l-.003-.003c.81-.75 1.444-1.681 1.398-2.89v-.004c0-.676-.444-1.537-1.453-1.537-1.23 0-2.037 1.145-2.037 2.64 0 1.068.478 1.704.478 1.704s-.356.208-.782.267c-.08.008-.159.014-.236.014-1.855-.024-1.482-3.164-1.482-3.164.487-1.687.647-2.798.647-3.529 0-.65-.148-1.407-.82-1.407-.619 0-1.116 1.138-1.116 3.119 0 .492.07 1.105.16 1.529 0 0-.116-.011-.214-.011-1.281.005-2.635 1.32-3.08 2.63-.42.478-.844.735-1.226.735-1.513 0-1.31-2.396-1.165-3.013-.04-.178-.219-.242-.377-.242a.754.754 0 00-.68.449 5.856 5.856 0 01-.636 1.779c-.36.626-.773.957-1.193.957a.438.438 0 01-.35-.178c-.454-.557-.277-2.253-.207-2.657-.005-.247-.217-.425-.507-.425a.899.899 0 00-.548.207c-.105.08-.722 1.085-.793 1.196v.002c-.473.737-1.038 1.541-1.675 1.858a1.24 1.24 0 01-.524.123.969.969 0 01-.874-.622 3.993 3.993 0 001.84-1.507c.367-.57.556-1.132.462-1.735-.083-.543-.581-.912-1.264-.912 0 0-.388-.004-.696.122-1.508.616-1.807 1.892-1.807 2.81 0 .41 0 .365.072.854-.934.184-1.986-.175-2.408-.49-.06.347 0 .645.18.885.28.375.832.59 1.515.59.284 0 .645-.057.927-.131.523.988 1.448 1.28 2.001 1.28 1.226 0 2.066-1.234 2.361-1.879 0 0 .124-.266.193-.352.063-.084.137-.141.215-.148.119-.01.14.066.14.066.023.04.005.243.006.243-.035.692.115 1.357.481 1.784.253.295.57.451.92.45 1.469-.001 2.286-1.78 2.286-1.78 0 .787.68 1.705 1.565 1.705.392 0 1.077-.158 1.648-.876.07 1.002.681 1.61 1.477 1.61.917 0 1.866-.95 2.417-2.416l.078-.209c.142 1.012.82 1.847 1.791 1.847.655.02 1.308-.19 1.9-.548 0 0 .609.741 2.038.608 1.39-.13 2.36-1.49 2.36-2.647 0-.347-.195-.737-.493-.75zM12.06 25.12c-.38.153-.697.888-.976 1.536-.302.702-.563 1.307-.926 1.307-.157 0-.43-.086-.496-.656-.055-.485.075-1.164.31-1.738.288-.7.72-1.255 1.32-1.255.663 0 .856.77.856.77l-.088.037zm9.452 3.054c-.413-.805-.381-2.089-.374-2.237.049-.97-.375-1.633-1.092-1.633-.832 0-1.647.857-1.991 1.43l-.198.332.013-.387c.02-.557-.107-.996-.366-1.27a1.017 1.017 0 00-.748-.316.936.936 0 00-.483.124c-.614.383-.929 1.12-1.233 1.831-.054.125-.106.258-.162.398-.292.738-.622 1.573-1.23 1.573a.44.44 0 01-.344-.157c-.327-.375-.265-1.35-.175-2.155.019-.157.035-.304.046-.44-.026-.129-.284-.35-.506-.394l-.013-.064c-.172-.764-.773-1.298-1.462-1.298-.215 0-.432.051-.645.15-.936.437-1.707 1.692-1.877 3.05-.147 1.18.04 2.239.49 2.761.287.335.678.453 1.15.349.313-.07.674-1.01.938-1.695.308-.799.465-1.184.678-1.184.079 0 .14.057.14.057l-.004.063c-.056.823.157 1.606.556 2.044.214.235.465.354.744.354.899 0 1.714-1.535 2.308-2.656.378-.716.584-1.09.762-1.13.1-.024.186.003.246.075.216.261.075 1.125-.027 1.753a9.78 9.78 0 00-.07.566c-.03.53.015 1.087.432 1.25.084.033.213.05.363.05.108 0 .222-.009.304-.025.046-.01.05-.06.05-.075-.146-1.683.495-2.7.81-3.133.29-.404.589-.544.839-.544.632 0 .665.913.699 1.796.028.756.06 1.533.441 1.726.315.158.78-.094.969-.331.134-.167.157-.346.022-.608zm32.984-1.369c-.23-.325-.342-1.3-.063-1.86.156-.313.388-.506.666-.477.348.036.58.446.41 1.099-.135.512-.63 1.003-1.013 1.238zm-8.735 1.317a.964.964 0 01-.933-.588c-.175-.484-.031-.955.136-1.5.12-.394.245-.8.262-1.26l.005-.157c.717.23 1.498 1.37 1.57 2.225.045.532-.232 1.228-1.04 1.28zm-6.072-.003c-.094 0-.232-.037-.324-.231-.438-.942.285-2.807.285-2.807.497.01 1.245-.075 1.698-.212 0 0-.672 3.25-1.659 3.25zm23.417-.996c-.024-.042-.066-.067-.13-.08-.24-.02-.362.19-.52.46-.029.05-.062.113-.097.18-.16.304-.475.8-.83.8-.389 0-.486-.498-.483-.93.004-.55.145-1.237.256-1.75.137-.634.267-1.232.154-1.5-.274-.662-1.087-.8-1.721-.8-.245 0-.461.02-.6.039l-.125.016-.003-.13c-.02-.708-.507-.967-.955-.971h-.01c-.39 0-.842.22-.873.62-.054.668.464.984.717 1.152.144.097.232.155.23.26-.004.51-.165 1.35-.512 2.081-.291.612-.824 1.342-1.647 1.342h-.007c-.663 0-.98-.41-.983-.414 0 0 1.614-.905 1.56-2.637-.028-.96-.597-1.51-1.452-1.51-.433 0-.894.25-1.202.654-.67.878-.504 2.452-.126 3.237-.406.194-.934.34-.934.34.003.035-.002-.013-.002-.013-.154-2.934-2.2-4.254-2.808-4.254-.45 0-.54.502-.593.677-.19.633-.53 1.65-.995 2.456-.342.594-.662.813-.662.813l-.008-.658c-.055-.808-.435-1.693-1.045-2.428-.58-.699-1.264-1.128-1.775-1.104 0 0-.401-.024-.572.274-.102.178-.05.485-.025.796a5.3 5.3 0 01.016.848c-.116 1.485-.715 2.654-1.359 2.654-.681 0-.783-1.135-.755-1.597.03-.477.16-.867.233-1.026.038-.083.104-.18.104-.246-.012-.172-.343-.36-.46-.413l-.026-.013-.007-.028c-.112-.47-.532-.977-1.189-.977-.764 0-1.305.366-1.68.825-.988-.099-1.352-.582-1.352-.582l.004-.038c.22-1.661-.143-3.309-.624-3.988-.25-.357-.906-.44-1.082.35-.212.951-.149 2.72.518 4.28v.006c-.004.419-.343 1.515-.838 2.478-.448.87-1.163 1.908-2.016 1.908-1.957 0-2.27-3.231-2.22-4.48.021-.515.081-.999.173-1.416.192-.666.475-1.045.44-1.246-.072-.25-.68-.412-1.258-.164-.347.148-.647.727-.882 1.41-.21.566-.403 1.242-.597 1.886-.1.326-.191.665-.28.994-.35 1.28-.65 2.385-1.12 2.385-.066 0-.125-.033-.18-.092-.574-.61-.628-2.177-.37-3.97a20.8 20.8 0 011.13-4.412c.362-.977.106-1.366-.5-1.415-.476-.039-.947.247-.926.487.079.895-.44 2.366-.745 4.555-.51 3.689.31 5.357.598 5.94.314.635.72.957 1.205.957.861 0 1.169-1.982 1.46-3.416.426-2.09.885-1.84.885-1.84s-.351 5.134 3.154 5.134c1.218 0 2.239-1.11 2.777-2.042.663-1.144 1.019-2.518 1.102-3.017.462.16 1.099.194 1.099.194l-.038.084c-.004.01-.439.987-.55 1.685-.069.336-.213 1.718.329 2.409.187.238.44.36.756.363h.005c.613 0 1.598-1.288 2.074-2.1l.171-.29.04.336c.088.729.566 1.512 1.408 1.512.064 0 .13-.005.198-.014.618-.084.883-.58.996-.982l.118-.418c.155 1.237 1.165 1.817 1.902 1.817 2.315 0 3.694-3.932 3.859-4.63.011-.045.058-.043.13-.005 1.414.723 2.117 1.992 1.67 2.919-.062.127-.59.184-1.093.095-.495-.088-.854-.296-1.055.072-.285.524.543 1.633 1.62 1.633 1.209 0 1.477-1.133 1.477-1.133s.8-.118 1.378-.419c.399.482.907.938 1.843.938.2 0 .41-.026.623-.078.804-.197 1.444-.866 1.905-1.988.253-.616.44-1.341.556-2.157l.01-.066.06-.025a1.7 1.7 0 01.654-.15c.615.007.64.443.64.443.017.442-.116.898-.245 1.34v.004c-.044.147-.088.299-.126.448a9.246 9.246 0 01-.072.272c-.102.382-.197.742-.2 1.04-.026.692.268 1.473 1.167 1.598.06.008.12.012.178.012 1.28 0 1.928-2.036 1.933-2.057.062-.18.07-.322.025-.4zM45.416 7.469c-1.43 0-2.475 1.385-2.796 2.399l-.047-.43c-.052-.476-.265-.758-.6-.961-1.024-.62-4.226-.318-4.233-.317-.05.003-.06-.043-.06-.043-.101-.352-.197-1.367-.21-2.215-.017-1.048.104-1.684.396-1.817.836-.382 4.528-.038 5.263.207.097.033.228.013.297-.088.145-.212.041-.472-.03-.635-.153-.364-.494-.685-.848-.8-.36-.13-.91-.193-1.687-.193-.982 0-2.182.098-3.454.202-1.345.11-2.735.225-3.94.225-.83 0-1.483-.054-1.998-.164-.089.202-.304 1.063.225 1.424.737.49 2.506.198 3.106.119.448-.06 1.39-.146 1.39-.146s-.062 1.415.241 2.813c.07.315.227.988.146 1.117a.137.137 0 01-.089.065c-.215.047-.52.07-.908.07-1.16 0-2.75-.219-2.785-.219-.208 0-.45.117-.45.447 0 .606.95 1.49 1.714 2.201.22.205.428.399.592.567a17.37 17.37 0 011.81 2.1c.434.58.597.815.98.815.432 0 .649-.203.689-.644.061-.667-.151-2.4-.173-2.978a50.948 50.948 0 00-.076-1.345 10.7 10.7 0 011.807-.102c1.538.06 2.52.492 2.095 2.368-.109.483-.261.972-.192 1.305l.001.003c.063.404.522.448.718.448a1.5 1.5 0 00.32-.035c-.02-1.676.46-2.929 1.202-3.704.537-.561 1.143-.893 1.997-.888.246.002.557-.03.557-.316 0-.52-.38-.855-.97-.855zm-8.613 3.874c-.085.263-.224.397-.413.397-.526 0-1.997-1.3-1.997-1.896 0-.512 1.12-.567 1.602-.567.238 0 .488.016.746.035a.099.099 0 01.08.056c.133.241.161 1.427-.018 1.975zm-13.018-1.25c.014-.658.161-1.168.455-1.586.254-.362.597-.587.895-.587.209 0 .4.187.4.49v.004c.026 1.375-1.657 2.445-1.657 2.445s-.104-.303-.093-.767zm4.174.873c-.822.774-1.833 1.312-2.77 1.321-.402.004-.707-.293-.874-.585 1.365-.907 2.632-1.966 2.632-3.516 0-1.283-1.004-1.693-1.764-1.693-1.314 0-2.504 1.183-2.504 3.455 0 .5.06 1.03.197 1.43 0 0-1.783 1.005-2.305.253-.356-.51.012-1.796.277-2.709.275-.944.41-1.41.13-1.74-.532-.629-2.574-.585-2.574-.585-.047-.622-.46-.951-1.01-.951-.47 0-.738.4-.738.89 0 .586.374.885.55.994.212.13.3.42.283.732-.053.891-.728 3.236-1.787 3.236-.55 0-1.008-.43-1.008-1.52 0-.319.044-.612.098-.786.125-.385.142-.636.05-.766-.065-.092-.19-.136-.387-.136-.871 0-1.062 1.139-1.203 1.626-.208.726-.539 1.703-1.205 1.703-.5 0-.656-.646-.656-1.114 0-1.248.309-1.923.266-2.206-.04-.266-.358-.417-.785-.417-.355 0-.599.086-.599.086.017-.014.887-1.035.887-2.878C11.16 1.582 8.624 0 5.806 0 2.562 0 0 2.024 0 5.621c.057 2.36 1.595 4.464 3.473 4.387.245-.01.305-.204.305-.206-.263-.157-2.506-1.123-2.206-4.657.185-2.263 1.98-4.064 4-4.064 3.143 0 4.298 2.108 4.298 4.281 0 .794-.288 3.1-1.568 3.284a1.359 1.359 0 01-.191.013 1.45 1.45 0 01-1.005-.42c-.248-.238-.401-.543-.401-.798 0-1.284.146-1.78.257-2.093a1.255 1.255 0 00-.278-.034c-.285 0-.515.121-.724.382-.536.65-.615 2.099-.615 2.904 0 2.047.305 4.201.724 5.123.218.48.608.79.993.79a.53.53 0 00.373-.14c.207-.185.202-.431-.016-.753l-.009-.014-.004-.013c-.337-1.064-.541-2.346-.643-4.035l-.017-.28c.536.625 1.037.727 1.415.727.6 0 1.152-.376 1.525-.935 0 0 .35-.25.586-.25.492 0 .09.914.033 2.034-.064 1.202.329 2.51 1.395 2.51.594 0 1.587-.61 2.008-2.825.175 2.03 1.182 2.529 1.907 2.529.574 0 1.342-.394 2.062-2.141.666-1.618.652-3.02.652-3.02s.133-.09.478-.09c.377 0 1.043.119 1.146.567.061.297-.062.625-.231 1.08-.188.503-.422 1.13-.523 2-.067.578.057 1.083.35 1.42.26.298.644.456 1.114.456.654 0 1.572-.316 2.577-.97.349.613.913.927 1.578.927.826 0 1.432-.3 2.107-.794.619-.452 1.124-1.1 1.168-1.475 0-.134-.096-.122-.134-.062z" fill="#fff"/></svg>