<svg version="1.1" id="Слой_1" xmlns="http://www.w3.org/2000/svg" x="0" y="0" viewBox="0 0 26 23" xml:space="preserve"><style id="stylish-1" type="text/css"/><path id="Shape_1_копия" d="M18.2 21.7H7.8c-.4 0-.7.3-.7.7 0 .4.3.6.7.6h10.4c.1-.2-.9-.7 0-1.3zm3.9-18.5h-2.5l-6-1.2V.7c.1-.4-.2-.7-.6-.7s-.7.3-.7.6V2L6.5 3.2H3.9c-.4 0-.7.3-.7.6 0 .4.3.7.7.7h2.7l5.7-1.1v16.4c0 .4.3.7.6.7s.7-.3.7-.6V3.4l5.9 1.2h2.6c.4 0 .7-.3.7-.7 0-.4-.3-.7-.7-.7zM3.9 5.9C2.6 6.5 0 14.2 0 15.6s1.7 2.6 3.9 2.6 3.9-1.2 3.9-2.6-2.6-9.1-3.9-9.7zm0 11c-1.6 0-2.6-.8-2.6-1.3.6-2.6 1.4-5.2 2.6-7.6 1.2 2.4 2 5 2.6 7.6 0 .5-1 1.3-2.6 1.3zm18.2-11c-1.3.6-3.9 8.3-3.9 9.8s1.7 2.6 3.9 2.6S26 17 26 15.6s-2.6-9.1-3.9-9.7zm0 11c-1.6 0-2.6-.8-2.6-1.3.6-2.6 1.4-5.2 2.6-7.6 1.2 2.4 2 5 2.6 7.6 0 .5-1 1.3-2.6 1.3z" fill="#ed6b33"/></svg>