<svg xmlns="http://www.w3.org/2000/svg" width="26" height="23" viewBox="0 0 26 23"><style id="stylish-1" type="text/css"/><path id="Shape_1_копия" data-name="Shape 1 копия" d="M445.2 2708.7h-10.4a.65.65 0 100 1.3h10.4a.65.65 0 000-1.3zm3.9-18.45l-2.473.01-5.977-1.19v-1.42a.65.65 0 10-1.3 0v1.42l-5.85 1.18h-2.6a.65.65 0 100 1.3l2.727-.01 5.723-1.15v16.36a.65.65 0 101.3 0v-16.36l5.85 1.16h2.6a.65.65 0 000-1.3zm-18.2 2.6c-1.3.65-3.9 8.31-3.9 9.75s1.746 2.6 3.9 2.6 3.9-1.16 3.9-2.6-2.6-9.1-3.9-9.75zm0 11.05c-1.587 0-2.6-.77-2.6-1.3a34.133 34.133 0 012.6-7.6 34.133 34.133 0 012.6 7.6c0 .53-1.014 1.3-2.6 1.3zm18.2-11.05c-1.3.65-3.9 8.31-3.9 9.75s1.746 2.6 3.9 2.6 3.9-1.16 3.9-2.6-2.6-9.1-3.9-9.75zm0 11.05c-1.587 0-2.6-.77-2.6-1.3a34.186 34.186 0 012.6-7.6 34.081 34.081 0 012.6 7.6c0 .53-1.013 1.3-2.6 1.3z" transform="translate(-427 -2687)" fill="#6f7379" fill-rule="evenodd"/></svg>